<mxfile host="app.diagrams.net" modified="2023-09-11T05:43:11.835Z" agent="Mozilla/5.0 (Windows NT 10.0; Win64; x64) AppleWebKit/537.36 (KHTML, like Gecko) Chrome/116.0.0.0 Safari/537.36" etag="baPmwXW4YU9i-6FEtBXq" version="21.6.8" type="device">
  <diagram id="C5RBs43oDa-KdzZeNtuy" name="Page-1">
    <mxGraphModel dx="794" dy="464" grid="1" gridSize="10" guides="1" tooltips="1" connect="1" arrows="1" fold="1" page="1" pageScale="1" pageWidth="827" pageHeight="1169" math="0" shadow="0">
      <root>
        <mxCell id="WIyWlLk6GJQsqaUBKTNV-0" />
        <mxCell id="WIyWlLk6GJQsqaUBKTNV-1" parent="WIyWlLk6GJQsqaUBKTNV-0" />
        <mxCell id="WIyWlLk6GJQsqaUBKTNV-2" value="" style="rounded=0;html=1;jettySize=auto;orthogonalLoop=1;fontSize=11;endArrow=block;endFill=0;endSize=8;strokeWidth=1;shadow=0;labelBackgroundColor=none;edgeStyle=orthogonalEdgeStyle;" parent="WIyWlLk6GJQsqaUBKTNV-1" source="WIyWlLk6GJQsqaUBKTNV-3" edge="1">
          <mxGeometry relative="1" as="geometry">
            <mxPoint x="220" y="170" as="targetPoint" />
          </mxGeometry>
        </mxCell>
        <mxCell id="WIyWlLk6GJQsqaUBKTNV-3" value="Start" style="rounded=1;whiteSpace=wrap;html=1;fontSize=12;glass=0;strokeWidth=1;shadow=0;" parent="WIyWlLk6GJQsqaUBKTNV-1" vertex="1">
          <mxGeometry x="160" y="80" width="120" height="40" as="geometry" />
        </mxCell>
        <mxCell id="_YHEuX3XCHLoAj_idzYY-0" value="Display input dialog box that prompts the user to input sentence" style="rounded=0;whiteSpace=wrap;html=1;" parent="WIyWlLk6GJQsqaUBKTNV-1" vertex="1">
          <mxGeometry x="157" y="168" width="120" height="60" as="geometry" />
        </mxCell>
        <mxCell id="_YHEuX3XCHLoAj_idzYY-1" value="" style="endArrow=none;dashed=1;html=1;rounded=0;" parent="WIyWlLk6GJQsqaUBKTNV-1" edge="1">
          <mxGeometry width="50" height="50" relative="1" as="geometry">
            <mxPoint x="160" y="234" as="sourcePoint" />
            <mxPoint x="280" y="234" as="targetPoint" />
            <Array as="points">
              <mxPoint x="230" y="234" />
              <mxPoint x="280" y="234" />
            </Array>
          </mxGeometry>
        </mxCell>
        <mxCell id="_YHEuX3XCHLoAj_idzYY-2" value="" style="endArrow=none;dashed=1;html=1;rounded=0;" parent="WIyWlLk6GJQsqaUBKTNV-1" edge="1">
          <mxGeometry width="50" height="50" relative="1" as="geometry">
            <mxPoint x="170" y="251" as="sourcePoint" />
            <mxPoint x="280" y="251" as="targetPoint" />
            <Array as="points">
              <mxPoint x="160" y="251" />
              <mxPoint x="180" y="251" />
              <mxPoint x="240" y="251" />
              <mxPoint x="280" y="251" />
            </Array>
          </mxGeometry>
        </mxCell>
        <mxCell id="_YHEuX3XCHLoAj_idzYY-4" value="" style="endArrow=none;dashed=1;html=1;dashPattern=1 3;strokeWidth=2;rounded=0;" parent="WIyWlLk6GJQsqaUBKTNV-1" edge="1">
          <mxGeometry width="50" height="50" relative="1" as="geometry">
            <mxPoint x="280" y="252" as="sourcePoint" />
            <mxPoint x="280" y="232" as="targetPoint" />
          </mxGeometry>
        </mxCell>
        <mxCell id="_YHEuX3XCHLoAj_idzYY-5" value="" style="endArrow=none;dashed=1;html=1;dashPattern=1 3;strokeWidth=2;rounded=0;" parent="WIyWlLk6GJQsqaUBKTNV-1" edge="1">
          <mxGeometry width="50" height="50" relative="1" as="geometry">
            <mxPoint x="160" y="252" as="sourcePoint" />
            <mxPoint x="160" y="232" as="targetPoint" />
          </mxGeometry>
        </mxCell>
        <mxCell id="_YHEuX3XCHLoAj_idzYY-26" value="&lt;font style=&quot;font-size: 10px;&quot;&gt;Iterate through the input and extract the email address/addresses using regular expression.&lt;/font&gt;" style="rounded=0;whiteSpace=wrap;html=1;" parent="WIyWlLk6GJQsqaUBKTNV-1" vertex="1">
          <mxGeometry x="159" y="290" width="120" height="60" as="geometry" />
        </mxCell>
        <mxCell id="_YHEuX3XCHLoAj_idzYY-27" value="" style="endArrow=none;dashed=1;html=1;rounded=0;" parent="WIyWlLk6GJQsqaUBKTNV-1" edge="1">
          <mxGeometry width="50" height="50" relative="1" as="geometry">
            <mxPoint x="159" y="354" as="sourcePoint" />
            <mxPoint x="279" y="354" as="targetPoint" />
            <Array as="points">
              <mxPoint x="229" y="354" />
              <mxPoint x="279" y="354" />
            </Array>
          </mxGeometry>
        </mxCell>
        <mxCell id="_YHEuX3XCHLoAj_idzYY-28" value="" style="endArrow=none;dashed=1;html=1;rounded=0;" parent="WIyWlLk6GJQsqaUBKTNV-1" edge="1">
          <mxGeometry width="50" height="50" relative="1" as="geometry">
            <mxPoint x="169" y="371" as="sourcePoint" />
            <mxPoint x="279" y="371" as="targetPoint" />
            <Array as="points">
              <mxPoint x="159" y="371" />
              <mxPoint x="179" y="371" />
              <mxPoint x="239" y="371" />
              <mxPoint x="279" y="371" />
            </Array>
          </mxGeometry>
        </mxCell>
        <mxCell id="_YHEuX3XCHLoAj_idzYY-29" value="" style="endArrow=none;dashed=1;html=1;dashPattern=1 3;strokeWidth=2;rounded=0;" parent="WIyWlLk6GJQsqaUBKTNV-1" edge="1">
          <mxGeometry width="50" height="50" relative="1" as="geometry">
            <mxPoint x="279" y="372" as="sourcePoint" />
            <mxPoint x="279" y="352" as="targetPoint" />
          </mxGeometry>
        </mxCell>
        <mxCell id="_YHEuX3XCHLoAj_idzYY-30" value="" style="endArrow=none;dashed=1;html=1;dashPattern=1 3;strokeWidth=2;rounded=0;" parent="WIyWlLk6GJQsqaUBKTNV-1" edge="1">
          <mxGeometry width="50" height="50" relative="1" as="geometry">
            <mxPoint x="159" y="372" as="sourcePoint" />
            <mxPoint x="159" y="352" as="targetPoint" />
          </mxGeometry>
        </mxCell>
        <mxCell id="_YHEuX3XCHLoAj_idzYY-31" value="Internal App" style="text;html=1;align=center;verticalAlign=middle;resizable=0;points=[];autosize=1;strokeColor=none;fillColor=none;" parent="WIyWlLk6GJQsqaUBKTNV-1" vertex="1">
          <mxGeometry x="156" y="228" width="90" height="30" as="geometry" />
        </mxCell>
        <mxCell id="_YHEuX3XCHLoAj_idzYY-47" value="Internal App" style="text;whiteSpace=wrap;html=1;" parent="WIyWlLk6GJQsqaUBKTNV-1" vertex="1">
          <mxGeometry x="197" y="350" width="80" height="40" as="geometry" />
        </mxCell>
        <mxCell id="_YHEuX3XCHLoAj_idzYY-72" value="" style="rounded=0;html=1;jettySize=auto;orthogonalLoop=1;fontSize=11;endArrow=block;endFill=0;endSize=8;strokeWidth=1;shadow=0;labelBackgroundColor=none;edgeStyle=orthogonalEdgeStyle;" parent="WIyWlLk6GJQsqaUBKTNV-1" edge="1">
          <mxGeometry relative="1" as="geometry">
            <mxPoint x="222" y="250" as="sourcePoint" />
            <mxPoint x="222" y="292" as="targetPoint" />
          </mxGeometry>
        </mxCell>
        <mxCell id="_YHEuX3XCHLoAj_idzYY-73" value="" style="rounded=0;html=1;jettySize=auto;orthogonalLoop=1;fontSize=11;endArrow=block;endFill=0;endSize=8;strokeWidth=1;shadow=0;labelBackgroundColor=none;edgeStyle=orthogonalEdgeStyle;" parent="WIyWlLk6GJQsqaUBKTNV-1" edge="1">
          <mxGeometry relative="1" as="geometry">
            <mxPoint x="222" y="380" as="sourcePoint" />
            <mxPoint x="222" y="410" as="targetPoint" />
            <Array as="points">
              <mxPoint x="222" y="370" />
              <mxPoint x="222" y="370" />
            </Array>
          </mxGeometry>
        </mxCell>
        <mxCell id="zbdN66aRmhUv04qdOEFZ-46" value="End" style="rounded=1;whiteSpace=wrap;html=1;fontSize=12;glass=0;strokeWidth=1;shadow=0;arcSize=45;" parent="WIyWlLk6GJQsqaUBKTNV-1" vertex="1">
          <mxGeometry x="162" y="532" width="120" height="40" as="geometry" />
        </mxCell>
        <mxCell id="acXGbif0loQxs_7j5LK4-0" value="Save extracted email to a variable called emailAdd" style="rounded=0;whiteSpace=wrap;html=1;" vertex="1" parent="WIyWlLk6GJQsqaUBKTNV-1">
          <mxGeometry x="161" y="411" width="120" height="60" as="geometry" />
        </mxCell>
        <mxCell id="acXGbif0loQxs_7j5LK4-1" value="" style="endArrow=none;dashed=1;html=1;rounded=0;" edge="1" parent="WIyWlLk6GJQsqaUBKTNV-1">
          <mxGeometry width="50" height="50" relative="1" as="geometry">
            <mxPoint x="161" y="475" as="sourcePoint" />
            <mxPoint x="281" y="475" as="targetPoint" />
            <Array as="points">
              <mxPoint x="231" y="475" />
              <mxPoint x="281" y="475" />
            </Array>
          </mxGeometry>
        </mxCell>
        <mxCell id="acXGbif0loQxs_7j5LK4-2" value="" style="endArrow=none;dashed=1;html=1;rounded=0;" edge="1" parent="WIyWlLk6GJQsqaUBKTNV-1">
          <mxGeometry width="50" height="50" relative="1" as="geometry">
            <mxPoint x="171" y="492" as="sourcePoint" />
            <mxPoint x="281" y="492" as="targetPoint" />
            <Array as="points">
              <mxPoint x="161" y="492" />
              <mxPoint x="181" y="492" />
              <mxPoint x="241" y="492" />
              <mxPoint x="281" y="492" />
            </Array>
          </mxGeometry>
        </mxCell>
        <mxCell id="acXGbif0loQxs_7j5LK4-3" value="" style="endArrow=none;dashed=1;html=1;dashPattern=1 3;strokeWidth=2;rounded=0;" edge="1" parent="WIyWlLk6GJQsqaUBKTNV-1">
          <mxGeometry width="50" height="50" relative="1" as="geometry">
            <mxPoint x="281" y="493" as="sourcePoint" />
            <mxPoint x="281" y="473" as="targetPoint" />
          </mxGeometry>
        </mxCell>
        <mxCell id="acXGbif0loQxs_7j5LK4-4" value="" style="endArrow=none;dashed=1;html=1;dashPattern=1 3;strokeWidth=2;rounded=0;" edge="1" parent="WIyWlLk6GJQsqaUBKTNV-1">
          <mxGeometry width="50" height="50" relative="1" as="geometry">
            <mxPoint x="161" y="493" as="sourcePoint" />
            <mxPoint x="161" y="473" as="targetPoint" />
          </mxGeometry>
        </mxCell>
        <mxCell id="acXGbif0loQxs_7j5LK4-6" value="" style="rounded=0;html=1;jettySize=auto;orthogonalLoop=1;fontSize=11;endArrow=block;endFill=0;endSize=8;strokeWidth=1;shadow=0;labelBackgroundColor=none;edgeStyle=orthogonalEdgeStyle;" edge="1" parent="WIyWlLk6GJQsqaUBKTNV-1">
          <mxGeometry relative="1" as="geometry">
            <mxPoint x="221" y="501" as="sourcePoint" />
            <mxPoint x="221" y="531" as="targetPoint" />
            <Array as="points">
              <mxPoint x="221" y="491" />
              <mxPoint x="221" y="491" />
            </Array>
          </mxGeometry>
        </mxCell>
        <mxCell id="acXGbif0loQxs_7j5LK4-8" value="internal App" style="text;html=1;align=center;verticalAlign=middle;resizable=0;points=[];autosize=1;strokeColor=none;fillColor=none;" vertex="1" parent="WIyWlLk6GJQsqaUBKTNV-1">
          <mxGeometry x="155" y="468" width="90" height="30" as="geometry" />
        </mxCell>
      </root>
    </mxGraphModel>
  </diagram>
</mxfile>
